<svg xmlns="http://www.w3.org/2000/svg" viewBox="0 0 473.197 473.197">
<path d="M422.353,233.037c-16.707-2.952-35.643-6.297-50.902-14.478c-38.774-20.828-183.505-94.195-189.15-97.056
	c-1.694-1.165-3.586-1.78-5.484-1.78c-3.042,0-5.967,1.479-7.825,3.962l-20.849,27.957c-1.195,1.171-1.681,2.664-1.37,4.231
	c0.982,4.951,12.09,11.265,33.027,18.78c-8.563,4.264-36.431,13.085-66.098,13.085c-54.373,0-73.772-23.893-83.096-35.375
	c-3.563-4.388-5.713-7.037-8.627-7.037c-1.448,0-2.745,0.691-3.881,2.086c-28.584,36.332-16.843,91.196-8.271,131.256
	c0.405,1.892,0.803,3.75,1.189,5.573c5.667,26.742,16.63,30.5,34.049,34.417c2.596,0.584,8.563,1.099,17.171,1.555l2.479,23.803
	c0.552,5.302,5.16,9.456,10.491,9.456H90.82c5.331,0,9.939-4.153,10.491-9.455l2.334-22.405c4.815,0.111,9.844,0.216,15.054,0.315
	l2.301,22.091c0.553,5.302,5.161,9.455,10.491,9.455h15.613c5.331,0,9.939-4.153,10.491-9.455l2.235-21.459
	c44.566,0.55,95.378,0.82,139.902,0.947l2.137,20.513c0.553,5.302,5.161,9.455,10.491,9.455h15.612c5.332,0,9.939-4.154,10.49-9.455
	l2.128-20.429c5.349,0.007,10.505,0.011,15.436,0.015l2.126,20.415c0.553,5.302,5.161,9.455,10.491,9.455h15.612
	c5.33,0,9.938-4.153,10.491-9.455l2.33-22.359c15.109-2.497,30.069-7.298,42.557-13.871c21.643-11.392,33.562-26.712,33.562-43.139
	C473.197,242.02,449.635,237.857,422.353,233.037z M303.912,213.016l-76.508,70.032c-0.081,0.06-0.127,0.082-0.122,0.086
	l-35.355-0.025c-0.039-0.043-0.056-0.108-0.054-0.108h0l85.257-77.249c0.032-0.005,0.09-0.005,0.139,0.002l26.655,7.129
	C303.945,212.91,303.969,212.963,303.912,213.016z M157.925,282.561c0,0,0,0,0.002-0.001l-37.165,0.476
	c-0.049,0-0.079,0-0.116-0.093c-0.035-0.088-0.018-0.126-0.022-0.126c-0.001,0-0.003,0.002-0.007,0.005l112.966-100.869
	c0.044-0.038,0.09-0.048,0.178-0.033l26.499,7.123c0.078,0.022,0.089,0.045,0.098,0.081c0.015,0.062-0.007,0.115-0.047,0.152
	l-102.242,93.198C157.975,282.541,157.925,282.561,157.925,282.561z"/>
</svg>
