<svg xmlns="http://www.w3.org/2000/svg" viewBox="0 0 1000 1000"><path d="M642.9 327.9l-36.1-22.5L697 160.8l36.1 22.5L642.9 327.9zM521.3 116.5h-42.6v170.4h42.6V116.5zM391.8 305.4l-90.2-144.6 -36.1 22.7 90.2 144.6L391.8 305.4zM990 499.9l-345.1 72.4c4.2 17.2 4.2 38.3 4.2 55.5 0 140.6-115 255.8-255.7 255.8 -119.2 0-217.2-80.9-247.1-187.4 -12.7 8.5-29.9 16.9-51.2 16.9C48.3 713.1 10 674.8 10 628c0-46.8 38.3-85.1 85.1-85.1 21.4 0 38.3 8.5 51.2 16.9 29.9-106.5 127.9-187.4 247.1-187.4H436v85.1h127.9v-85.1h426v127.4H990zM137.9 627.8c0-25.6-17.2-42.5-42.6-42.5 -25.4 0-42.5 16.9-42.5 42.5 0 25.6 17.2 42.5 42.5 42.5C120.7 670.3 137.9 653.4 137.9 627.8z"/></svg>
