<svg xmlns="http://www.w3.org/2000/svg" viewBox="0 0 200 200"><path d="M21.8 30.7C22.9 23.4 23.4 13.8 31.1 10.2 32.7 12.2 33.1 14.7 33.4 17.1 35.3 15.2 40.1 11.5 41.1 16 40.9 22.2 35.9 26.7 33.2 31.9 34.9 36.7 38.2 40.9 40.4 45.5 43.9 52.6 48.9 59 55.5 63.2 61.9 67.3 69.4 69.2 76 73 88.4 80 99.3 90.1 106.6 102.4 111.5 110.4 114.9 119.6 115 129 115.2 137.3 113.8 146.1 117.1 154 120.8 162.7 130 167.8 138.9 169.5 158.5 172.3 178.4 171.6 198 174.1 172.7 185 144.1 188.3 117 183 108.6 180.9 102.3 174.3 97.8 167.2 95.6 164.3 93.1 160.2 89 160.3 84.9 161.4 81 164.3 79 168.2 77.6 173 81.7 176.9 82.7 181.3 83.1 183.1 82 185.3 80 185.4 74.3 186.1 68.7 184.2 63 183.6 51.5 182.3 39.6 181 28.1 183.7 23.6 184.5 18.7 185.9 14.5 183.6 12.7 182.6 10.6 180.8 11.2 178.5 12.5 175.5 16 174.7 18.9 174.2 34.7 172.5 50.7 176.7 66.3 172.9 66.3 167.5 66.6 161.8 64.3 156.7 61.4 150.3 55.2 146.2 51.9 140.1 48.6 134.3 47.2 127.6 47.2 121 47.1 115 46.6 109 45.5 103.1 42.2 103.5 38 103.6 36.2 107 34.2 111.3 35 117 30.9 120.1 28.9 121.5 27 119.5 26.2 117.9 24 114.3 25.2 110 26.2 106.3 28.1 99.1 33.9 94.1 39.1 89.1 36.8 82.9 32.7 77.6 30.3 71.5 28.1 66.3 27.7 60.6 25.4 55.5 19.4 52.3 12.4 56.3 6.1 54.2 3.8 53.7 0.2 52 1.7 49.1 6 40.9 13.8 35.1 21.8 30.7Z"/></svg>
