<svg xmlns="http://www.w3.org/2000/svg" width="75" height="75" viewBox="0 0 75 75"><path d="M33.06 47.54c5.4 8.9 1.3 8.52-4.5 8.36-1.34-.04-2.26-.03-2.67.8l.8.47c.7-1.24 1.8-.8 3.4-.86 5.7-.2 8.2-.8 2.8-8.7zm15.78 9.32h-.08c-1.52-.1-4.84-.1-4.75-4.37.1-4.3 1-8.2 1.2-12 .3-3.8-2.7-6-4.9-8 0 0-3.3-2.9-3.8-5.3-.5-2.6.5-7.4.3-8-.3-.9-.2-.7-.3-1.5 0-.5.4-1.9.5-2.8h.7C49.98 15 60 25 60 37.4c0 8.25-4.47 15.46-11.1 19.36zm-19.32 1.6c2.03 0 9.18.3 9.65.2.48-.1 1.42-.78.86-2.1-.57-1.3-3.07-5-3.32-6.63-.2-1.62-.4-3.1 1.4-2.94 1.8.1 2 2.6 2.1 4.2.1 1.6.7 5.3 2.1 6.1 1 .5 2.9.6 4.4.6-2.7 1.2-5.8 1.9-9 1.9-2.8 0-5.5-.5-8-1.5zm5.57-42.8s-1.2 2.77-4.9 3.9c-1.4.76-.4 1.53.2 1.62.6.08 2.1-.2 2.2.66.1.88.4 2-1.5 4.84-1.9 2.85-3.7 2.83-3.9 4.08-.3 1.26-.2 3.32.1 3.7.3.38 1.3.57 1.5-.66.2-1.24.9-1.9 1.6-1.8.6.1 1.5.76 1.6 2.84.1 2.1.1 2.85-1 4.27-1.1 1.5-3.7 3.6-1.2 7.9 2.55 4.4 3.7 5.1 3.4 6.5-.28 1.4-1.1 1.5-2.74 1.5-1.6 0-4.46-.6-5.5.1l-.77.6C18.63 51.6 15 45 15 37.6c0-6 2.3-11.6 6.55-15.82 3.7-3.7 8.5-5.97 13.64-6.5-.2.3-.2.5-.2.5zM20.4 20.4c-4.57 4.57-7.1 10.65-7.1 17.1 0 13.35 10.87 24.2 24.2 24.2 13.35 0 24.2-10.85 24.2-24.2 0-13.33-10.85-24.2-24.2-24.2-6.45 0-12.53 2.53-17.1 7.1zM9.8 40.34c0 1.04-.83 1.9-1.87 1.9s-1.88-.86-1.88-1.9.84-1.88 1.88-1.88 1.88.84 1.88 1.88zm59.36 0c0 1.04-.85 1.9-1.9 1.9-1.03 0-1.87-.86-1.87-1.9s.8-1.88 1.8-1.88 1.9.84 1.9 1.88zM51.4 61.66l2.04 1.68-1.5.92-.54-2.6zm-.2 6.12l1.3-.8-.33-1.56 2.18-1.33 1.23 1 1.33-.8-5.7-4.5-1.3.8 1.3 7.1zm-7.45 2.3l1.44-.4-.9-2.83 2.6-.77.8 2.83 1.4-.4-1.9-6.5-1.47.4.73 2.5-2.63.8-.7-2.5-1.42.4 1.9 6.6zm-5.5-4.65l.94 2.47-1.8.06.8-2.53zm-3.2 5.23l1.53-.05.5-1.5 2.52-.1.56 1.5h1.55L39 63.8l-1.53.04-2.4 6.9zM30.28 64l1.6.36c.65.14.94.5.8 1.14-.15.68-.56.88-1.2.73l-1.62-.35.42-1.87zm-2.68 5.2l1.45.33.57-2.6 1.47.32c.7.16.9.53.8 1.25-.1.55-.2 1.18-.1 1.64l1.4.33c-.2-.44 0-1.22 0-1.64.1-.68.02-1.43-.66-1.77v-.02c.8-.14 1.25-.65 1.42-1.44.2-1-.38-2-1.57-2.26l-3.6-.8-1.47 6.66zm-3.3-7.58l1.06.52c.62.3 1.1.72.72 1.5-.38.77-1 .63-1.63.33l-1.04-.52.9-1.83zm-3.84 4.4l1.35.66 1.1-2.2 1.4.7c1.6.76 2.6.1 3.1-.9s.4-2.25-1.1-3l-2.8-1.38-3 6.12zM61.2 21.44c-1.6.84-1.58 2.55-.82 3.97.94 1.8 2.32 2.2 3.5 1.6 1.46-.8.98-2.4.85-2.9-.45-1.8-.56-2.2-.06-2.4.54-.3 1 .2 1.25.6.36.7.46 1.4-.3 1.8l.74 1.4c1.5-.8 1.4-2.3.7-3.7-.63-1.1-1.93-2-3.24-1.3-1.2.67-1.06 1.8-.8 2.9.25 1.1.65 2.1-.04 2.5-.66.37-1.2-.3-1.47-.8-.4-.76-.4-1.6.5-2.07l-.7-1.37zm-6.97-4.1l1.04 1.08 3.53-3.37h.02l-1.44 5.58 1.1 1.16 5.28-5.1-1.04-1.1L59.2 19h-.07l1.44-5.58-1.1-1.15-5.28 5.03zm-.8-7.02l-.55 2.78-1.63-.95 2.17-1.83zm-5.86 2.96l1.4.8L50.3 13l2.35 1.37-.34 1.68 1.5.83 1.3-7.67-1.4-.8-6 4.9zm-2.32-.86l1.5.53 2.4-6.9-1.5-.52-2.4 6.9zm-9.03-1.14l1.5.15.5-5.1h.03l1.27 5.28 1.23.2 2.3-4.9-.5 5.2 1.5.18.72-7.26-2.25-.24-2.1 4.84h-.03l-1.2-5.2-2.3-.25-.8 7.26zm-6.54 1.34l5.42-1.13-.27-1.4-3.85.8-.37-1.8 3.5-.7-.2-1.3-3.4.7-.3-1.57 3.8-.8-.23-1.3-5.33 1.1 1.5 7.15zm-6.84 3.26l1.42-.74-1.45-2.8L25.5 11l1.45 2.78 1.4-.74L25 6.57l-1.44.74 1.3 2.5-2.62 1.4-1.3-2.5-1.4.8L22.9 16zm-7.48 1.92c-.9-.9-1.36-2.16-.33-3.17 1.02-1 2.27-.5 3.16.4.8.87 1.3 2.12.3 3.13-1.1 1-2.3.5-3.2-.36zm-1.14 1.13c1.47 1.5 3.6 1.77 5.2.2 1.62-1.6 1.4-3.72-.08-5.22-1.52-1.5-3.65-1.8-5.26-.2-1.6 1.6-1.38 3.7.14 5.3zm-5.4 4.3l.73-1.32c.28-.5.66-.9 1.27-.5.54.3.56.8.3 1.3l-.8 1.4-1.5-.8zm4.54 4.3l1.7-3.1c.63-1.14.68-2.55-.6-3.26-.8-.44-1.63-.38-2.28.28.04-.7-.23-1.26-.86-1.6-1.2-.66-2.03-.05-2.7 1.17l-1.66 3 6.4 3.52zm-2.08-2.96l.84-1.53c.33-.6.82-.87 1.47-.5.6.35.5.94.2 1.5l-.8 1.5-1.8-.97zM2.04 37.5c0-19.55 15.9-35.46 35.47-35.46S73 17.94 73 37.5 57.08 73 37.5 73C17.95 73 2.04 57.1 2.04 37.53zm-1.77 0c0 20.54 16.7 37.25 37.24 37.25 20.6 0 37.3-16.7 37.3-37.24C74.8 17 58.1.3 37.5.3 16.98.28.28 16.98.28 37.5"/></svg>
