<?xml version="1.0" standalone="no"?>
<!DOCTYPE svg PUBLIC "-//W3C//DTD SVG 20010904//EN"
 "http://www.w3.org/TR/2001/REC-SVG-20010904/DTD/svg10.dtd">
<svg version="1.0" xmlns="http://www.w3.org/2000/svg"
 width="75.000000pt" height="75.000000pt" viewBox="0 0 75.000000 75.000000"
 preserveAspectRatio="xMidYMid meet">
<metadata>
Created by potrace 1.11, written by Peter Selinger 2001-2013
</metadata>
<g transform="translate(0.000000,75.000000) scale(0.100000,-0.100000)"
fill="#000000" stroke="none">
<path d="M268 730 c-31 -9 -72 -27 -92 -39 -55 -34 -123 -116 -147 -179 -31
-79 -31 -195 0 -274 28 -72 102 -154 173 -193 46 -26 65 -30 153 -33 135 -5
195 17 281 102 80 81 107 147 108 266 0 75 -4 93 -32 152 -80 166 -272 252
-444 198z m243 -29 c151 -58 243 -233 209 -396 -50 -241 -331 -361 -535 -228
-248 162 -203 534 76 632 71 25 174 22 250 -8z"/>
<path d="M298 700 c-13 -8 -14 -16 -6 -43 9 -28 14 -33 34 -29 13 2 24 8 24
13 0 4 -9 6 -20 4 -25 -5 -26 10 -2 20 15 7 14 9 -8 15 -25 8 -25 8 -2 9 13 1
20 6 17 11 -8 12 -15 12 -37 0z"/>
<path d="M369 703 c0 -4 -3 -20 -5 -35 -3 -16 0 -28 6 -28 5 0 10 10 11 23 1
21 2 19 15 -22 4 -11 8 -10 20 5 15 18 15 18 10 1 -4 -12 -2 -17 6 -15 17 6
20 68 3 68 -8 0 -17 -10 -21 -22 l-8 -23 -6 24 c-5 23 -29 42 -31 24z"/>
<path d="M466 668 c-3 -13 -6 -30 -6 -38 1 -13 2 -13 9 0 16 27 22 60 13 60
-5 0 -12 -10 -16 -22z"/>
<path d="M243 666 c3 -8 -1 -17 -9 -20 -8 -3 -14 -1 -14 4 0 6 -5 10 -11 10
-14 0 -2 -40 18 -60 13 -13 14 -13 9 6 -7 23 19 43 27 21 2 -7 7 -9 11 -6 9 8
-14 59 -27 59 -5 0 -7 -6 -4 -14z"/>
<path d="M504 639 c-18 -19 -23 -30 -14 -29 27 4 41 0 36 -9 -3 -5 1 -14 10
-21 11 -10 18 -10 26 -2 19 19 25 14 20 -20 l-4 -33 31 29 c31 30 36 51 5 25
-14 -11 -16 -10 -14 11 4 43 1 44 -31 14 l-31 -29 7 41 c8 54 -5 61 -41 23z"/>
<path d="M133 604 c-8 -21 9 -48 32 -53 26 -5 47 26 34 50 -12 23 -57 25 -66
3z m48 -10 c10 -13 10 -17 -1 -24 -18 -11 -30 -3 -30 21 0 23 13 25 31 3z"/>
<path d="M297 604 c-89 -28 -167 -134 -167 -230 0 -50 34 -126 77 -169 150
-153 408 -44 407 171 -1 109 -67 199 -171 230 -57 17 -84 17 -146 -2z m47 -18
c-3 -7 -17 -19 -32 -26 -21 -10 -23 -14 -10 -17 29 -7 28 -32 -2 -67 -29 -33
-40 -76 -20 -76 6 0 10 7 10 16 0 24 25 11 28 -15 2 -12 -4 -33 -12 -46 -21
-32 -20 -57 5 -99 11 -19 18 -40 14 -46 -3 -5 -25 -10 -49 -10 -34 0 -47 6
-67 28 -54 61 -68 121 -49 203 16 66 85 141 146 157 21 5 40 10 41 11 1 1 0
-5 -3 -13z m101 3 c26 -7 56 -28 85 -58 91 -93 93 -216 4 -308 -71 -75 -98
-51 -88 75 l6 80 -34 33 c-54 52 -58 67 -49 182 1 10 29 9 76 -4z m-51 -321
c2 -7 9 -32 15 -55 8 -29 18 -43 29 -44 27 -2 -28 -17 -65 -18 -17 -1 -34 3
-37 7 -2 4 11 6 30 4 28 -3 34 -1 34 14 0 11 -7 28 -15 38 -17 23 -20 66 -5
66 6 0 12 -6 14 -12z"/>
<path d="M85 537 c-14 -20 -14 -23 6 -39 29 -24 44 -22 57 6 10 23 8 26 -18
40 -28 13 -31 13 -45 -7z m41 -16 c9 7 14 8 14 1 0 -18 -20 -24 -35 -12 -8 7
-12 17 -8 24 5 7 9 5 11 -7 3 -14 7 -16 18 -6z"/>
<path d="M637 543 c-4 -3 -7 -17 -7 -30 0 -13 -4 -22 -10 -18 -5 3 -7 12 -3
20 3 8 0 15 -7 15 -6 0 -10 -10 -8 -22 4 -32 43 -32 42 0 0 12 3 22 8 22 4 0
8 -7 8 -15 0 -8 5 -15 10 -15 13 0 13 6 0 31 -11 20 -22 24 -33 12z"/>
<path d="M63 354 c-7 -19 2 -28 22 -21 19 8 19 23 0 31 -9 3 -18 -1 -22 -10z"/>
<path d="M661 356 c-12 -14 -5 -26 16 -26 15 0 18 26 4 34 -5 3 -14 0 -20 -8z"/>
<path d="M222 125 c-14 -31 -16 -57 -3 -36 5 8 16 11 24 8 8 -3 20 0 27 6 10
10 11 6 8 -16 -6 -30 6 -46 16 -22 8 21 26 19 27 -2 0 -10 5 -5 9 11 11 36 6
46 -26 46 -14 0 -32 7 -40 15 -21 21 -29 19 -42 -10z m38 -5 c0 -5 -4 -10 -10
-10 -5 0 -10 5 -10 10 0 6 5 10 10 10 6 0 10 -4 10 -10z m55 -20 c3 -5 1 -10
-4 -10 -6 0 -11 5 -11 10 0 6 2 10 4 10 3 0 8 -4 11 -10z"/>
<path d="M504 123 c2 -16 5 -32 5 -36 1 -5 8 -1 17 7 8 9 20 14 25 11 21 -14
7 14 -16 29 -33 22 -36 20 -31 -11z"/>
<path d="M460 117 c0 -20 -11 -22 -29 -4 -11 10 -13 8 -7 -13 3 -14 6 -31 6
-37 0 -7 5 -13 10 -13 6 0 10 9 10 20 0 25 8 25 27 3 13 -16 14 -15 8 12 -8
35 -25 58 -25 32z"/>
<path d="M361 78 c-6 -17 -8 -34 -5 -37 4 -3 9 0 11 7 6 16 30 16 36 0 3 -8 6
-5 6 5 1 22 -16 57 -28 57 -5 0 -14 -14 -20 -32z m29 2 c0 -5 -5 -10 -11 -10
-5 0 -7 5 -4 10 3 6 8 10 11 10 2 0 4 -4 4 -10z"/>
</g>
</svg>
